:SAMPLES-PER-SECOND 30
:FULLY-SPECIFIED
:DEGREES
489
root  6.27849 34.5859 39.5624 -139.56 85.8803 -142.719
LeftUpLeg  -16.0659 6.08956 10.5527
LeftLeg  38.4621 8.83796 6.08572
LeftFoot  1.54182 -0.00434932 0.323221
LeftToes  -11.5098 1.85109e-006 5.31342e-008
Spine  3.27354 0.933752 0.650242
Spine1  6.32908 2.04942 1.05144
RightShoulder  0.0586754 1.04001 9.22126
RightArm  11.58 -1.69052 74.7863
RightForeArm  39.6304 55.3098 14.8035
RightHand  0.570731 -9.95022 -6.17516
LeftShoulder1  0.0054379 2.39087 -3.59003
LeftArm  -35.2046 39.458 -74.2369
LeftForeArm  26.3463 -27.8375 -5.33563
LeftHand  0.00530181 2.4597 -0.122649
HEad  -30.0557 -65.6547 30.7085
RightUpLeg  -10.4131 -8.22117 0.232462
RightLeg  15.6026 -0.456121 -0.0958805
RightFoot  2.0618 0.0123126 0.0137152
RightToes  -33.3661 -0.167774 -0.274667
490
root  6.40154 34.6935 40.2218 -117.788 87.6543 -121.755
LeftUpLeg  -17.6156 5.49366 7.15737
LeftLeg  35.0348 -1.76637 -1.08039
LeftFoot  0.900341 3.43905e-005 -0.00438607
LeftToes  -22.1545 1.85109e-006 5.31342e-008
Spine  3.1024 0.946857 0.462177
Spine1  6.03964 2.06649 0.706698
RightShoulder  0.0487762 1.28439 8.31244
RightArm  11.8677 -3.22656 74.728
RightForeArm  39.0479 54.4195 14.3098
RightHand  0.566611 -10.0776 -6.04567
LeftShoulder1  0.00360179 3.13644 -4.67633
LeftArm  -30.3599 35.5067 -70.9823
LeftForeArm  27.4984 -31.649 -6.2334
LeftHand  0.0139671 1.32252 0.835755
HEad  -28.6704 -64.8153 28.7891
RightUpLeg  -10.339 -9.37888 0.997332
RightLeg  13.6648 2.36811 0.417558
RightFoot  2.65317 0.00565833 0.133172
RightToes  -33.7139 -0.170314 -0.276932
491
root  6.547 34.694 40.9102 -69.082 87.8233 -73.4627
LeftUpLeg  -18.5577 5.30057 4.25672
LeftLeg  30.8862 -9.52146 -4.86388
LeftFoot  -1.23779 0.00273869 0.25352
LeftToes  -12.9469 1.85109e-006 5.31342e-008
Spine  2.99444 0.973399 0.438113
Spine1  5.86419 2.09785 0.689723
RightShoulder  0.0406614 1.28704 7.92849
RightArm  11.93 -4.7304 73.6085
RightForeArm  38.5352 53.4717 13.8084
RightHand  0.589381 -9.72121 -6.54807
LeftShoulder1  0.00105235 3.32236 -5.38832
LeftArm  -26.7684 32.5571 -67.7169
LeftForeArm  29.835 -37.3968 -7.74436
LeftHand  -0.00617729 -0.203818 3.21136
HEad  -27.2425 -64.2441 27.1983
RightUpLeg  -10.9787 -10.1342 2.26433
RightLeg  14.4561 4.55609 0.86688
RightFoot  1.56418 0.00319546 0.143399
RightToes  -35.4079 -0.182877 -0.28774
492
root  6.64387 34.5973 41.8063 -28.66 87.2282 -33.2023
LeftUpLeg  -18.6688 3.82317 3.27036
LeftLeg  27.0916 -2.9215 -1.26738
LeftFoot  0.10945 -1.60275e-005 0.0167718
LeftToes  -10.1428 1.85109e-006 5.31342e-008
Spine  2.91423 0.860819 0.13633
Spine1  5.69437 1.9014 0.0753763
RightShoulder  0.0438044 1.52454 8.1266
RightArm  11.9538 -5.94266 72.3023
RightForeArm  37.8864 51.6035 12.8854
RightHand  0.669947 -9.79753 -7.42965
LeftShoulder1  -6.42176e-005 3.12287 -5.42796
LeftArm  -25.8273 30.1999 -64.1573
LeftForeArm  31.9177 -42.7599 -9.38814
LeftHand  -0.0496764 -1.27057 4.13047
HEad  -24.5825 -63.1699 24.8998
RightUpLeg  -14.162 -12.1769 3.00371
RightLeg  21.3707 4.54295 1.44519
RightFoot  -3.24134 -0.0174499 -0.239242
RightToes  -41.7421 -0.232547 -0.32475
493
root  6.71537 34.2948 42.8291 -4.87308 86.0677 -9.01129
LeftUpLeg  -17.0344 2.61534 4.76005
LeftLeg  26.1648 -2.30619 -0.957283
LeftFoot  -1.21806 0.000846224 0.0795979
LeftToes  -17.7549 1.85109e-006 5.31342e-008
Spine  3.05476 0.445963 -0.396607
Spine1  5.92555 1.10017 -0.963174
RightShoulder  0.0508912 2.00629 8.14538
RightArm  10.9313 -6.52879 71.8223
RightForeArm  37.5889 48.841 11.6568
RightHand  0.690817 -9.63936 -7.80389
LeftShoulder1  0.00240037 2.83843 -4.70885
LeftArm  -26.1422 28.576 -60.2065
LeftForeArm  31.8131 -47.7251 -11.1987
LeftHand  -0.071773 -2.00246 3.7481
HEad  -21.0549 -60.8211 22.1021
RightUpLeg  -18.2704 -15.4374 2.80921
RightLeg  31.5923 -2.08722 -1.11543
RightFoot  -9.26286 0.00566869 0.447558
RightToes  -43.1335 -0.243986 -0.33213
494
root  6.63354 33.8752 43.8422 -5.48006 85.0084 -9.36357
LeftUpLeg  -18.4627 6.96999 7.00342
LeftLeg  30.0678 -5.83965 -2.89329
LeftFoot  -2.62285 0.0075348 0.329126
LeftToes  -24.0505 1.85109e-006 5.31342e-008
Spine  3.33791 -0.0584393 -0.649481
Spine1  6.43007 0.0644823 -1.3502
RightShoulder  0.0534721 2.4066 7.97691
RightArm  6.33582 -6.73922 72.2955
RightForeArm  38.5541 44.8034 10.0932
RightHand  0.648204 -9.11674 -7.74127
LeftShoulder1  0.0102308 2.95403 -4.95452
LeftArm  -24.7502 26.0417 -54.3003
LeftForeArm  31.5395 -52.5404 -13.3359
LeftHand  -0.115554 -2.5019 4.9317
HEad  -21.468 -58.3572 22.4979
RightUpLeg  -21.6948 -16.3924 1.86732
RightLeg  41.3242 -7.663 -5.89335
RightFoot  -14.274 0.268244 2.51975
RightToes  -30.0769 -0.144451 -0.2525
495
root  6.57513 33.5077 44.8439 -22.3713 87.4968 -26.8213
LeftUpLeg  -21.006 8.63286 8.87614
LeftLeg  33.1981 -9.23582 -5.19611
LeftFoot  -3.47968 0.0203418 0.669663
LeftToes  -25.2812 1.85109e-006 5.31342e-008
Spine  3.682 -1.0697 -0.863827
Spine1  7.07617 -2.06067 -1.58291
RightShoulder  0.0450584 1.12727 8.61177
RightArm  -1.56625 -7.37466 73.2035
RightForeArm  38.5474 40.9036 8.78632
RightHand  0.741113 -9.458 -8.56485
LeftShoulder1  0.0224229 3.10215 -5.27741
LeftArm  -25.3572 22.2406 -49.2321
LeftForeArm  36.2474 -57.7183 -16.2616
LeftHand  -0.195065 -3.29471 6.41824
HEad  -24.1057 -57.7326 24.0917
RightUpLeg  -24.2129 -17.2372 -1.29296
RightLeg  48.9767 -6.66979 -6.73178
RightFoot  -15.5151 0.317398 2.70725
RightToes  -26.3064 -0.119331 -0.225493
